<?xml version="1.0" encoding="UTF-8" standalone="no"?>
<!-- Created with Inkscape (http://www.inkscape.org/) -->

<svg
   width="22.099312mm"
   height="19.885174mm"
   viewBox="0 0 22.099312 19.885174"
   version="1.1"
   id="svg5"
   xml:space="preserve"
   inkscape:export-filename="bar_to_map.svg"
   inkscape:export-xdpi="200"
   inkscape:export-ydpi="200"
   inkscape:version="1.2.1 (2ed6d7ae0b, 2022-08-22, custom)"
   sodipodi:docname="bar_to_map.svg"
   xmlns:inkscape="http://www.inkscape.org/namespaces/inkscape"
   xmlns:sodipodi="http://sodipodi.sourceforge.net/DTD/sodipodi-0.dtd"
   xmlns="http://www.w3.org/2000/svg"
   xmlns:svg="http://www.w3.org/2000/svg"><sodipodi:namedview
     id="namedview7"
     pagecolor="#ffffff"
     bordercolor="#666666"
     borderopacity="1.0"
     inkscape:showpageshadow="2"
     inkscape:pageopacity="0.0"
     inkscape:pagecheckerboard="0"
     inkscape:deskcolor="#d1d1d1"
     inkscape:document-units="mm"
     showgrid="false"
     inkscape:zoom="1.8209035"
     inkscape:cx="48.876836"
     inkscape:cy="85.397168"
     inkscape:window-width="1880"
     inkscape:window-height="1136"
     inkscape:window-x="40"
     inkscape:window-y="27"
     inkscape:window-maximized="1"
     inkscape:current-layer="layer1" /><defs
     id="defs2" /><g
     inkscape:label="Layer 1"
     inkscape:groupmode="layer"
     id="layer1"
     transform="translate(-90.260382,-118.40172)"><g
       id="g163"
       transform="matrix(0.21408302,0,0,0.21408302,102.16678,128.39733)"><path
         d="M 12.234,19.817 H 1.813 c -0.829,0 -1.5,0.671 -1.5,1.5 v 23.378 c 0,0.828 0.671,1.5 1.5,1.5 h 10.421 c 0.829,0 1.5,-0.672 1.5,-1.5 V 21.317 c 0,-0.829 -0.671,-1.5 -1.5,-1.5 z"
         id="path148" /><path
         d="m 28.146,0.805 h -10.42 c -0.829,0 -1.5,0.671 -1.5,1.5 v 42.39 c 0,0.828 0.671,1.5 1.5,1.5 h 10.42 c 0.828,0 1.5,-0.672 1.5,-1.5 V 2.305 c 0,-0.828 -0.669,-1.5 -1.5,-1.5 z"
         id="path150" /><path
         d="m 45.188,11.227 h -10.42 c -0.828,0 -1.5,0.671 -1.5,1.5 v 31.968 c 0,0.828 0.672,1.5 1.5,1.5 h 10.42 c 0.828,0 1.5,-0.672 1.5,-1.5 V 12.727 c 0,-0.829 -0.672,-1.5 -1.5,-1.5 z"
         id="path152" /></g><path
       d="m 102.49856,120.54344 c -0.0417,-0.0545 -0.13769,-0.13659 -0.24438,-0.15707 0.0168,-0.11591 0.0281,-0.23509 0.0115,-0.35735 0.003,-0.009 0.009,-0.019 0.0119,-0.0279 0.0218,-0.0504 0.0489,-0.11284 0.0321,-0.18369 -0.002,-0.007 -0.004,-0.0139 -0.007,-0.0207 l -0.0109,-0.0223 c -0.003,-0.007 -0.007,-0.0139 -0.0126,-0.0199 -0.005,-0.005 -0.009,-0.0117 -0.0115,-0.0164 -0.0229,-0.086 -0.0843,-0.14847 -0.16911,-0.17571 -0.0414,-0.12389 -0.16365,-0.18246 -0.26161,-0.22976 -0.0264,-0.0127 -0.0779,-0.0416 -0.0868,-0.0375 -0.002,-0.005 -0.20815,-0.45278 -0.46432,-0.45278 -0.0421,0 -0.1475,0.0127 -0.21099,0.13004 -0.009,0.0166 -0.0162,0.0289 -0.0221,0.0378 -0.002,-7.8e-4 -0.005,-0.002 -0.009,-0.004 -0.0679,-0.0311 -0.1342,-0.0469 -0.19769,-0.0469 -0.1331,0 -0.22343,0.0666 -0.28256,0.12389 -0.0216,-0.002 -0.0779,-0.0418 -0.11215,-0.0656 -0.044,-0.0305 -0.0931,-0.0645 -0.14728,-0.0891 -0.004,-0.005 -0.009,-0.0108 -0.01,-0.004 -8.2e-4,-0.14724 -0.19333,-0.27994 -0.353918,-0.36492 -0.111929,-0.0602 -0.234557,-0.0594 -0.373987,0.0118 -0.0212,0.0107 -0.03921,0.0199 -0.0504,0.0199 h -2.13e-4 c -0.03846,-0.005 -0.06617,-0.008 -0.113251,0.002 -0.0163,-0.008 -0.03164,-0.018 -0.05061,-0.0303 -0.0325,-0.0209 -0.06563,-0.0412 -0.101221,-0.0567 -0.06553,-0.0293 -0.147507,-0.0346 -0.240886,-0.0153 -6.61e-4,0 -0.0075,0.002 -0.01396,0.004 -0.114338,-0.0991 -0.25136,-0.12022 -0.381627,-0.0586 -0.05061,0.024 -0.13048,0.0809 -0.124599,0.20663 -0.02919,0.0158 -0.09515,0.0291 -0.190914,0.0391 -0.0032,-0.003 -0.0064,-0.006 -0.01108,-0.0105 -0.04294,-0.0397 -0.114764,-0.10648 -0.244584,-0.10648 h -4.37e-4 l -0.06851,0.003 c -0.03164,0.002 -0.06084,0.0153 -0.08044,0.0385 -0.01993,0.0231 -0.0277,0.053 -0.02227,0.0821 l 0.0032,0.0148 c -0.03186,0.0153 -0.09707,0.0407 -0.229987,0.0795 -0.104524,0.0305 -0.169754,0.0505 -0.225607,0.087 -0.0456,-0.0461 -0.12023,-0.11652 -0.249836,-0.11652 -2.13e-4,0 -2.13e-4,0 -4.37e-4,0 -0.241973,0.0107 -0.314852,0.22178 -0.358932,0.34915 -0.01353,0.0389 -0.0358,0.10403 -0.03889,0.1112 -0.03665,0 -0.109106,-0.0276 -0.136159,-0.0381 l -0.07704,-0.0281 c -0.04827,-0.0176 -0.108222,-0.0396 -0.20531,-0.0406 -0.04283,0.002 -0.0764,0.0113 -0.09643,0.0184 -0.05519,-0.0256 -0.09909,-0.0338 -0.156447,-0.0311 -0.0244,-0.0215 -0.06191,-0.052 -0.116948,-0.0676 -0.04901,-0.0139 -0.11193,-0.0143 -0.191149,-0.006 -0.0096,7.8e-4 -0.01897,0.002 -0.02941,0.002 -0.08247,-0.15933 -0.250487,-0.33421 -0.440528,-0.37168 -0.0064,-0.004 -0.01396,-0.01 -0.02312,-0.0168 -0.04539,-0.0342 -0.121743,-0.0911 -0.245467,-0.0922 -0.152525,0 -0.291721,0.0653 -0.425696,0.19946 -0.09952,0.0997 -0.158843,0.2054 -0.206844,0.30594 -0.0064,0.003 -0.01396,0.006 -0.02099,0.01 -0.140954,0.0666 -0.194846,0.15831 -0.159941,0.27278 0.0096,0.0299 0.02206,0.0586 0.03601,0.0866 0.0085,0.017 0.01769,0.0365 0.01918,0.0463 8.2e-4,0.008 -0.0043,0.0332 -0.0075,0.0508 -0.0064,0.0321 -0.01438,0.0721 -0.01332,0.11734 8.2e-4,0.0297 0.0021,0.0596 0.0053,0.0907 0.0053,0.0985 0.0114,0.18348 -0.01726,0.25741 -0.0325,0.0852 -0.07767,0.17038 -0.122627,0.25475 -0.0699,0.13168 -0.142041,0.26786 -0.180452,0.42657 -0.02163,0.0885 -0.01726,0.17385 -0.01353,0.24922 0.0021,0.0553 0.0053,0.1073 -0.0021,0.15113 -0.0085,0.0428 -0.02536,0.0876 -0.0456,0.13924 -0.03101,0.0782 -0.06595,0.1667 -0.07,0.26909 -0.0053,0.1198 -0.06041,0.56479 -0.08449,0.65469 -0.01833,0.069 -0.01683,0.1372 -0.01524,0.1972 0.0021,0.0522 0.0021,0.11141 -0.01353,0.1327 -0.07437,0.0983 -0.134635,0.17284 -0.233044,0.2355 -0.249165,0.15892 -0.316376,0.31025 -0.387508,0.4708 -0.0244,0.0555 -0.04976,0.11263 -0.08641,0.17714 -0.0064,0.0117 -0.03857,0.0348 -0.06148,0.0514 -0.07064,0.051 -0.201826,0.14581 -0.178918,0.31721 0.01076,0.0788 0.0096,0.15625 0.0085,0.24533 -6.6e-4,0.0475 -0.0021,0.0954 0,0.14498 0.0053,0.21298 -0.05232,0.46691 -0.148156,0.5052 l -0.02728,0.0107 c -0.08513,0.033 -0.222986,0.0864 -0.269899,0.22894 -0.01545,0.0104 -0.03537,0.0225 -0.04933,0.0311 -0.04891,0.0303 -0.09952,0.0618 -0.132227,0.0997 -0.02813,0.032 -0.05455,0.0686 -0.08151,0.10608 -0.02994,0.0418 -0.06329,0.0883 -0.09557,0.11755 -0.0032,-2.1e-4 -0.0064,-6.2e-4 -0.0096,-7.8e-4 -0.0021,-2.1e-4 -0.0021,-4.1e-4 -0.0043,-6.2e-4 -4.37e-4,-0.002 -8.2e-4,-0.002 -8.2e-4,-0.003 0.02397,-0.0264 0.0798,-0.0883 0.0602,-0.17796 -0.02024,-0.0946 -0.109969,-0.13741 -0.140304,-0.15174 -0.108882,-0.051 -0.255281,0.005 -0.334053,0.0508 -0.0021,0.002 -0.0053,0.003 -0.0075,0.005 l -0.0032,-0.005 c -0.0195,-0.024 -0.04891,-0.0387 -0.08098,-0.0403 -0.03207,-0.002 -0.06308,0.01 -0.08513,0.0315 l -0.04827,0.0475 c -0.05999,0.0586 -0.07597,0.12614 -0.08641,0.17099 -0.0021,0.008 -0.0032,0.0158 -0.0053,0.0219 -4.37e-4,2.1e-4 -8.2e-4,6.2e-4 -0.0021,7.8e-4 -0.0053,-0.005 -0.0114,-0.008 -0.0163,-0.0115 -0.0085,-0.005 -0.01588,-0.0104 -0.02184,-0.0148 l -0.01918,-0.076 c -0.0085,-0.0351 -0.03687,-0.0633 -0.07352,-0.0739 -0.03623,-0.0101 -0.07661,-0.002 -0.105164,0.0213 l -0.07426,0.0622 c -0.01588,0.0127 -0.05434,0.0334 -0.09515,0.0565 -0.211639,0.11959 -0.36329,0.21543 -0.387509,0.3598 -0.0085,0.0541 0.0032,0.10792 0.03346,0.15236 0,0.0324 -0.0096,0.10178 -0.0244,0.16505 -0.02919,0.008 -0.06478,0.0205 -0.09994,0.0453 l -0.03601,0.0256 c -0.03889,0.0279 -0.05349,0.0762 -0.0358,0.11877 l 0.01662,0.0397 c 0.08513,0.20294 0.217765,0.24553 0.313755,0.24553 0.08535,0 0.159291,-0.0332 0.226054,-0.0631 0.04539,-0.0203 0.09664,-0.0438 0.135509,-0.0407 0.157096,0.0285 0.337985,0.0316 0.616397,0.0246 0.109533,-0.003 0.217755,-0.005 0.319648,2.1e-4 0.358058,0.0194 0.820417,0.002 1.08989,-0.0101 l 0.01939,-2.1e-4 c 0.0032,0.005 0.0085,0.0102 0.01311,0.0168 0.01193,0.0152 0.02568,0.0326 0.04251,0.052 0.0358,0.042 0.03346,0.1157 0.02536,0.17017 -0.02003,0.13311 0.04518,0.23018 0.09249,0.30124 0.0212,0.0313 0.04294,0.0641 0.04603,0.085 0.0021,0.0135 0.0021,0.026 0.0021,0.0399 0,0.051 0,0.1282 0.06563,0.21543 l 0.02834,0.0375 c 0.01438,0.0187 0.02792,0.0365 0.0439,0.0581 0.01375,0.0188 0.03537,0.0676 0.05455,0.1112 0.06659,0.15154 0.149467,0.34034 0.352166,0.37844 0.0075,0.002 0.01854,0.002 0.02227,0.002 l 0.130917,-7.7e-4 c 0.05274,0 0.109319,0.002 0.175869,0.0115 0.0085,7.7e-4 0.0244,7.7e-4 0.03303,0 0.03814,-0.004 0.07117,-0.0166 0.116511,-0.0346 0.118909,-0.0471 0.176072,-0.0522 0.202049,-0.0535 0.04688,0.0254 0.107785,0.0385 0.310484,0.0385 l 0.143351,-0.002 0.07395,6.1e-4 c 0.0021,2.1e-4 0.0021,0 0.0032,0 0.06585,0.002 0.111269,-0.045 0.111269,-0.10239 0,-0.0172 -0.0053,-0.0336 -0.01257,-0.0477 l -0.0096,-0.0407 c -0.0032,-0.0158 0.0021,-0.0461 0.0075,-0.0752 0.0032,-0.02 0.0075,-0.0428 0.01065,-0.0674 0.01065,-0.008 0.02003,-0.017 0.02898,-0.0269 0.05498,-0.0606 0.07288,-0.14314 0.05455,-0.25189 -6.61e-4,-0.007 0.0032,-0.0244 0.0064,-0.0405 0.108658,0.008 0.223433,0.0111 0.298497,-0.003 0.0053,0.0276 0.01747,0.0553 0.0375,0.0817 0.0749,0.0981 0.209039,0.0981 0.273618,0.0981 0.01854,0 0.03921,-4.1e-4 0.06148,-0.002 0.06073,-0.002 0.121104,-0.003 0.181762,-0.003 l 0.242197,0.002 c -0.0053,0.0188 -0.01183,0.0399 -0.01982,0.0643 -0.0179,0.0549 -0.03815,0.11672 -0.03932,0.1886 -0.0021,0.0881 0.03378,0.15891 0.06041,0.21318 0.0096,0.0193 0.0195,0.0385 0.02504,0.059 0.03058,0.10955 0.01076,0.22976 -0.01257,0.37065 -0.01151,0.0692 -0.02269,0.13823 -0.02792,0.20602 -0.01875,0.24286 0.05093,0.37843 0.195059,0.55782 0.07427,0.0922 0.123288,0.31476 0.08247,0.42902 -0.02792,0.0361 -0.08662,0.11079 -0.06222,0.23263 0.0053,0.0299 0.01577,0.058 0.02568,0.0846 0.0043,0.0104 0.01119,0.0299 0.01193,0.0313 l -0.02003,0.0721 c -0.0085,0.0305 -0.0021,0.0633 0.01918,0.0885 0.02067,0.025 0.05231,0.0397 0.08641,0.0397 h 0.08034 c 0.134849,0 0.21362,-0.0829 0.257039,-0.1288 2.24e-4,-2e-4 6.5e-4,-4.1e-4 8.21e-4,-7.8e-4 0.04059,0.003 0.08471,0.003 0.08748,-4.1e-4 0.0075,0.002 0.01684,0.005 0.02706,0.008 0.101861,0.031 0.197243,0.0321 0.27317,0.006 0.03623,-0.0117 0.06936,-0.0279 0.101222,-0.044 0.01684,-0.008 0.04187,-0.0213 0.04933,-0.0217 0.106912,0.0258 0.183275,0.032 0.311358,-0.009 2.13e-4,-2.1e-4 2.13e-4,-2.1e-4 4.37e-4,-2.1e-4 0.01289,0.0111 0.02749,0.0223 0.04454,0.0326 -0.0032,0.008 -0.0064,0.0149 -0.0114,0.0225 l -0.0325,0.0551 c -0.01513,0.0256 -0.01811,0.0559 -0.0075,0.0836 0.01065,0.0274 0.03228,0.0495 0.06116,0.0608 l 0.06137,0.0238 c 0.146633,0.0577 0.270784,0.0272 0.361766,-0.0174 0.0196,-0.01 0.04166,-0.0205 0.06936,-0.0303 0.0277,-0.01 0.05647,-0.0186 0.0862,-0.0262 0.0096,0.0649 0.03143,0.12717 0.06499,0.17878 0.06787,0.10423 0.169754,0.15727 0.295215,0.14928 0.02973,0.006 0.07608,0.0156 0.07128,0.0142 0.02557,0.0111 0.04688,0.0215 0.06691,0.0315 0.06553,0.0326 0.139644,0.0697 0.272958,0.0697 2.24e-4,0 2.24e-4,0 2.24e-4,0 l 0.03356,-7.8e-4 c 0.04017,0 0.07725,0.007 0.117608,0.0139 0.04539,0.008 0.08897,0.0145 0.131567,0.0145 0.08002,0 0.179567,-0.0244 0.255281,-0.12226 0.01065,0.0115 0.02131,0.0223 0.03314,0.0326 0.0064,0.008 0.0163,0.0371 0.02291,0.0565 0.01268,0.0367 0.02792,0.0819 0.05764,0.12615 0.06446,0.0962 0.164728,0.13577 0.290638,0.11263 0.009,-0.002 0.0166,-0.003 0.0163,-0.005 0.006,0.002 0.0235,0.0152 0.0366,0.025 0.0443,0.033 0.10953,0.0815 0.2088,0.0899 0.004,0.0127 0.0107,0.0348 0.0183,0.0731 0.0168,0.0801 0.0801,0.13495 0.12874,0.17713 0.0107,0.009 0.0202,0.0164 0.0257,0.0228 0.0283,0.0358 0.0533,0.0915 0.0773,0.14499 0.0108,0.024 0.0214,0.0473 0.0321,0.0698 0.0521,0.10608 0.14423,0.16669 0.25267,0.16669 0.0812,0 0.15012,-0.0327 0.2136,-0.0696 0.0417,0.0463 0.10431,0.0737 0.17369,0.0737 0.004,0 0.0223,-7.8e-4 0.026,-0.002 0.21166,-0.0207 0.19398,-0.2484 0.18655,-0.34035 l 0.003,-0.11284 c 0.005,-0.18655 0.0111,-0.37372 0.0111,-0.56028 v -0.0743 c 0,-0.0321 -0.0162,-0.0625 -0.0434,-0.0817 -0.0275,-0.0194 -0.0626,-0.0251 -0.0958,-0.0166 l -0.0761,0.0207 c -0.0249,0.006 -0.046,0.0111 -0.0683,0.0156 -0.0862,0.018 -0.1632,0.0416 -0.21644,0.12327 -0.026,-0.0139 -0.05,-0.0286 -0.0598,-0.0368 -0.0935,-0.0829 -0.21534,-0.20314 -0.2771,-0.29099 -0.045,-0.0645 -0.0386,-0.0864 -0.005,-0.19536 0.006,-0.0225 0.0137,-0.0465 0.0206,-0.0723 0.0177,-0.0674 0.041,-0.11714 0.0722,-0.18042 0.0331,-0.0684 0.0526,-0.14396 0.0579,-0.22465 0.005,-0.0714 -0.006,-0.13679 -0.0163,-0.19577 -0.009,-0.0489 -0.0162,-0.0954 -0.0123,-0.13577 l 0.007,-0.0637 c 0.0181,-0.14539 0.0462,-0.37127 -0.07,-0.52199 0.0139,-0.0112 0.029,-0.0227 0.044,-0.0346 0.0956,-0.0735 0.24351,-0.188 0.25223,-0.35182 0.11389,-0.019 0.22213,-0.0334 0.33056,-0.0477 0.17325,-0.0231 0.35217,-0.0469 0.55859,-0.0911 l 0.0565,-0.0123 c 0.0574,-0.0125 0.0938,-0.0651 0.0825,-0.11939 l -0.0111,-0.0535 c -0.0417,-0.19965 -0.13637,-0.2656 -0.19834,-0.31126 -0.0144,-0.36165 -0.19659,-0.48308 -0.31768,-0.56397 -0.0489,-0.0324 -0.0792,-0.0535 -0.0933,-0.0789 -0.0718,-0.13229 -0.11456,-0.24041 -0.14925,-0.32724 -0.0271,-0.0684 -0.051,-0.12962 -0.0831,-0.18492 0.0155,-0.0217 0.0327,-0.0473 0.0502,-0.0793 0.0927,-0.17017 0.0148,-0.3123 -0.0421,-0.41653 -0.04,-0.0729 -0.0744,-0.13618 -0.0739,-0.21768 4.4e-4,-0.0653 0.0227,-0.13004 0.0466,-0.19864 0.0373,-0.10874 0.0797,-0.23202 0.0498,-0.39891 -0.003,-0.0188 -0.0125,-0.0367 -0.026,-0.051 l -0.0354,-0.0375 c -6.6e-4,-6.2e-4 -0.002,-0.002 -0.002,-0.002 -8.2e-4,-0.0159 -0.002,-0.033 -0.003,-0.0518 -0.004,-0.0631 -0.0125,-0.18062 0.0166,-0.21625 0.014,-0.0121 0.0298,-0.0416 0.0358,-0.0584 0.0669,-0.19003 -0.0112,-0.30922 -0.0737,-0.40526 -0.0159,-0.0241 -0.0341,-0.0489 -0.0526,-0.0739 -0.0196,-0.0266 -0.072,-0.0975 -0.0737,-0.11529 l 0.0258,-0.0273 c 0.0574,-0.0663 0.14356,-0.16669 0.14727,-0.28608 l 6.5e-4,-0.0289 c 0.002,-0.0725 0.002,-0.0725 0.0483,-0.12082 0.0179,-0.0183 0.0364,-0.033 0.0543,-0.0473 0.0467,-0.0375 0.10452,-0.084 0.14772,-0.16424 0.0436,-0.0813 0.0425,-0.17098 0.0414,-0.25065 -4.3e-4,-0.0219 -8.2e-4,-0.043 8.4e-4,-0.0604 l 0.0131,-0.10178 c 0.01,-0.0719 0.0187,-0.14294 0.0243,-0.22013 0.003,-0.0396 0.005,-0.0793 0.005,-0.1194 0.002,-0.0539 0.004,-0.10792 0.0107,-0.16116 0.01,-0.0833 0.0615,-0.19741 0.10735,-0.26704 0.055,-0.0836 0.052,-0.16792 0.05,-0.22587 -2.2e-4,-0.008 -4.4e-4,-0.017 -2.2e-4,-0.0251 0.0188,-0.009 0.0395,-0.0215 0.0618,-0.0393 0.0477,-0.0375 0.0984,-0.0954 0.15951,-0.16567 0.0264,-0.0305 0.0506,-0.0588 0.0681,-0.0755 0.0321,-0.0314 0.0694,-0.0651 0.11238,-0.10382 0.16407,-0.14745 0.34998,-0.31476 0.41805,-0.50848 0.0152,-0.0434 0.0298,-0.13107 -0.0472,-0.23099 z m -10.632164,4.73171 z"
       id="path165"
       style="stroke-width:0.211381" /><path
       d="m 110.93143,128.73511 1.37132,-2.22608 c 0.11084,-0.18018 0.055,-0.41598 -0.12518,-0.5269 -0.18021,-0.11074 -0.41589,-0.055 -0.52688,0.12528 l 1.1e-4,1e-5 -0.91457,1.48439 c -0.28915,-2.23429 -1.0201,-3.84254 -1.91794,-4.9841 -1.05458,-1.34247 -2.32685,-2.0311 -3.32983,-2.3796 -1.0045,-0.34913 -1.74385,-0.36453 -1.77224,-0.36541 -0.21142,-0.003 -0.38592,0.16445 -0.39,0.37583 -0.002,0.0919 0.0292,0.17665 0.0816,0.24348 0.0687,0.0873 0.17459,0.14423 0.29418,0.14641 l 1e-4,10e-6 c 0,0 0,0 0.003,2.2e-4 0.0549,0.002 0.73186,0.0313 1.61702,0.35299 0.88622,0.32278 1.97682,0.93205 2.89431,2.09939 0.80783,1.02897 1.48968,2.49883 1.76292,4.62702 l -1.46645,-0.8869 c -0.18092,-0.10953 -0.41647,-0.052 -0.5259,0.12947 -0.0848,0.14035 -0.0689,0.31334 0.0268,0.43499 0.0277,0.0352 0.0622,0.0663 0.10296,0.091 l 2.29126,1.38546 c 0.1799,0.1085 0.41376,0.0517 0.524,-0.12693 z"
       id="path174"
       style="stroke-width:0.11408" /><path
       d="m 93.00877,128.91385 -1.228397,2.30801 c -0.09927,0.18681 -0.02857,0.41864 0.158148,0.51796 0.186834,0.0992 0.418536,0.0287 0.517966,-0.15819 h -1.11e-4 l 0.819265,-1.53904 c 0.429282,2.21164 1.260075,3.77067 2.228008,4.85341 1.13705,1.27339 2.450167,1.88052 3.473093,2.16516 1.024488,0.28519 1.763368,0.25393 1.791758,0.25304 0.2112,-0.01 0.37478,-0.18842 0.36557,-0.39963 -0.003,-0.0918 -0.0402,-0.17447 -0.0968,-0.23787 -0.074,-0.0827 -0.18333,-0.13295 -0.3028,-0.12755 l -1.1e-4,-2e-5 c 0,0 0,0 -0.003,-3e-5 -0.0548,0.002 -0.732377,0.0152 -1.636033,-0.25051 -0.904786,-0.26634 -2.031599,-0.80569 -3.020797,-1.91296 -0.871018,-0.97603 -1.644094,-2.40005 -2.050824,-4.50679 l 1.519398,0.79279 c 0.187467,0.0979 0.418927,0.0256 0.516718,-0.16234 0.07571,-0.14542 0.04873,-0.31709 -0.05413,-0.43245 -0.02989,-0.0335 -0.06623,-0.0622 -0.108456,-0.0844 l -2.373974,-1.23843 c -0.186367,-0.097 -0.416186,-0.0255 -0.514944,0.15976 z"
       id="path174-3"
       style="stroke-width:0.11408" /></g></svg>
