<?xml version="1.0" encoding="UTF-8" standalone="no"?>
<!-- Created with Inkscape (http://www.inkscape.org/) -->

<svg
   width="39.639587mm"
   height="38.235168mm"
   viewBox="0 0 39.639587 38.235168"
   version="1.1"
   id="svg348"
   xml:space="preserve"
   inkscape:version="1.2.1 (2ed6d7ae0b, 2022-08-22, custom)"
   sodipodi:docname="episcience_sandbox.svg"
   xmlns:inkscape="http://www.inkscape.org/namespaces/inkscape"
   xmlns:sodipodi="http://sodipodi.sourceforge.net/DTD/sodipodi-0.dtd"
   xmlns="http://www.w3.org/2000/svg"
   xmlns:svg="http://www.w3.org/2000/svg"><sodipodi:namedview
     id="namedview350"
     pagecolor="#ffffff"
     bordercolor="#666666"
     borderopacity="1.0"
     inkscape:showpageshadow="2"
     inkscape:pageopacity="0.0"
     inkscape:pagecheckerboard="0"
     inkscape:deskcolor="#d1d1d1"
     inkscape:document-units="mm"
     showgrid="false"
     inkscape:zoom="0.45522587"
     inkscape:cx="-496.45685"
     inkscape:cy="-1393.8136"
     inkscape:window-width="1880"
     inkscape:window-height="1136"
     inkscape:window-x="40"
     inkscape:window-y="27"
     inkscape:window-maximized="1"
     inkscape:current-layer="layer1" /><defs
     id="defs345" /><g
     inkscape:label="Layer 1"
     inkscape:groupmode="layer"
     id="layer1"
     transform="translate(727.44698,271.10607)"><path
       d="m -691.00074,-246.32591 0.2555,-0.38553 c 0,0 0.003,0 0.003,-0.003 0.003,-0.006 0.01,-0.003 0.0159,-0.009 0.0425,-0.0583 0.1011,-0.10452 0.17804,-0.12251 l 0.6685,-0.14633 c 0.006,-0.003 0.01,0.003 0.0129,0 v -0.0792 l -0.25244,-0.47787 -0.27089,-0.26008 c -0.01,-0.009 -0.006,-0.0238 -0.0159,-0.0316 -0.0159,-0.018 -0.0364,-0.0297 -0.0488,-0.0525 l -0.30732,-0.63344 c -0.01,-0.0209 0.003,-0.0433 -0.003,-0.0642 -0.003,-0.0238 -0.0251,-0.0374 -0.0251,-0.0612 v -0.43754 c 0,-0.003 0.003,-0.003 0.003,-0.006 0,-0.003 -0.003,-0.003 -0.003,-0.006 l 0.0647,-1.57855 -0.72035,-0.72873 c -0.009,-0.0122 -0.006,-0.0267 -0.0159,-0.0374 -0.0159,-0.0209 -0.0364,-0.0345 -0.0457,-0.0583 l -0.48689,-1.17548 c -0.009,-0.018 0.003,-0.0374 0,-0.0554 -0.003,-0.0209 -0.0221,-0.0316 -0.0221,-0.0525 v -1.40108 l -0.0425,-0.0209 c -0.0159,-0.006 -0.019,-0.0267 -0.0333,-0.0345 -0.0334,-0.0238 -0.0518,-0.0491 -0.0739,-0.0851 -0.0251,-0.0316 -0.0395,-0.0613 -0.0457,-0.10161 -0.003,-0.0151 -0.019,-0.0267 -0.019,-0.0433 v -0.40786 c 0,-0.0122 0.0129,-0.0209 0.0129,-0.0316 0.003,-0.0122 -0.01,-0.0209 -0.006,-0.0316 l 0.10722,-0.46134 c 0.003,-0.009 0.01,-0.0122 0.0129,-0.018 0.003,-0.006 -0.003,-0.0122 0,-0.018 l 0.72342,-1.96547 -0.12622,-0.71998 c -0.003,-0.018 0.0129,-0.0316 0.0129,-0.0491 0,-0.018 -0.0159,-0.0297 -0.0129,-0.0462 l 0.41917,-2.52114 c 0.003,-0.0238 0.0251,-0.0345 0.0333,-0.0554 0.006,-0.018 -0.003,-0.0404 0.01,-0.0583 l 0.35145,-0.53038 c 0.0159,-0.0238 0.0457,-0.0267 0.0678,-0.0462 0.0221,-0.018 0.0251,-0.0433 0.0488,-0.0554 l 0.76909,-0.39718 c 0.006,-0.003 0.009,0 0.0128,-0.003 0.003,0 0.006,-0.006 0.009,-0.006 l 1.44688,-0.6242 0.13544,-0.22411 -0.38786,-0.57802 c -0.0159,-0.0209 -0.006,-0.0433 -0.0129,-0.0671 -0.01,-0.0238 -0.0333,-0.0374 -0.0364,-0.0671 l -0.13853,-1.39474 c 0,-0.006 0.003,-0.009 0.003,-0.0122 0,-0.006 -0.006,-0.009 -0.006,-0.0151 v -0.66164 c 0,-0.018 0.0159,-0.0267 0.019,-0.0433 0.003,-0.0151 -0.009,-0.0297 -0.003,-0.0433 l 0.28063,-0.86338 c 0.003,-0.009 0.0129,-0.0122 0.0159,-0.0209 0.003,-0.009 -0.003,-0.018 0.003,-0.0267 l 0.65878,-1.26929 -1.00714,-0.63636 -4.28248,-1.48471 h -0.003 l -2.21906,-0.70345 c -0.01,-0.003 -0.0129,-0.0122 -0.0221,-0.018 -0.0159,-0.006 -0.0313,-0.003 -0.0457,-0.0122 l -0.7424,-0.44336 -0.13853,0.19884 c -0.006,0.009 -0.019,0.006 -0.0282,0.0122 -0.0554,0.07 -0.13543,0.1225 -0.23652,0.1225 l -1.55616,0.003 -2.80695,0.71706 -3.44515,1.34421 c -0.0129,0.006 -0.0282,0.006 -0.0395,0.009 -0.006,0 -0.01,0.006 -0.0129,0.009 l -3.08447,0.6242 c -0.0129,0.003 -0.0251,0.003 -0.0364,0.006 h -0.003 l -1.37609,0.10452 h -0.0251 c -0.0488,0 -0.10111,-0.0122 -0.14827,-0.0345 l -1.15389,-0.5722 c -0.0251,-0.0122 -0.0282,-0.0374 -0.0457,-0.0525 -0.0159,-0.0122 -0.0364,-0.009 -0.0518,-0.0238 l -0.96301,-1.105 -0.2709,-0.0297 -0.2001,0.11035 -0.45559,1.0034 c -0.006,0.0151 -0.019,0.0209 -0.0282,0.0316 -0.0129,0.0209 -0.0282,0.0316 -0.0426,0.0491 -0.0395,0.0374 -0.0837,0.0613 -0.13544,0.0763 -0.0159,0.006 -0.0221,0.0209 -0.0364,0.0209 l -1.43756,0.20466 -0.53564,0.25377 -0.21907,0.33301 -0.41301,0.68837 0.38479,0.0642 c 0.0251,0.003 0.0395,0.0267 0.0615,0.0374 0.0251,0.009 0.0518,0.003 0.0739,0.018 l 0.3848,0.27467 c 0.0313,0.0238 0.0333,0.0583 0.0554,0.088 0.019,0.0267 0.0518,0.0433 0.0615,0.0792 l 0.14828,0.55129 c 0.01,0.0345 -0.0128,0.0642 -0.0159,0.0987 -0.003,0.0316 0.0129,0.0613 -0.003,0.0909 l -0.95686,2.13858 -0.66493,2.47013 -0.0457,2.12689 v 1.14389 c 0,0.003 -0.006,0.006 -0.006,0.009 0,0.0374 -0.0282,0.0671 -0.0425,0.0987 -0.019,0.0374 -0.0251,0.0792 -0.0554,0.10744 -0.003,0.003 -0.003,0.006 -0.006,0.009 l -1.16311,0.96305 c -0.0159,0.0151 -0.0395,0.0122 -0.0585,0.0209 -0.0159,0.009 -0.0221,0.0297 -0.0395,0.0345 l -1.04357,0.35829 -0.81783,0.40786 -0.46791,0.84541 -0.28218,1.24551 -0.1416,0.9018 c -0.003,0.009 -0.0129,0.0151 -0.0159,0.0238 0,0.009 0.006,0.0151 0.003,0.0238 l -0.38787,1.14973 c -0.006,0.018 -0.0251,0.0267 -0.0333,0.0433 -0.007,0.0122 -0.001,0.0267 -0.01,0.0374 l -1.35704,1.79049 c -0.01,0.0151 -0.0282,0.009 -0.0395,0.0209 -0.0129,0.0151 -0.0129,0.0345 -0.0313,0.0462 l -0.72648,0.50462 c -0.01,0.006 -0.019,0.003 -0.0283,0.009 -0.006,0.006 -0.007,0.0151 -0.016,0.018 l -0.19397,0.0924 c -0.0457,0.0238 -0.0959,0.0316 -0.14365,0.0316 -0.057,0 -0.1134,-0.0151 -0.16367,-0.0433 -0.0146,-0.006 -0.0205,-0.0238 -0.0335,-0.0316 -0.0335,-0.0267 -0.0647,-0.0491 -0.0867,-0.088 l -0.0821,-0.15508 -0.41453,-0.48371 c -0.007,-0.006 -0.004,-0.018 -0.01,-0.0267 -0.004,-0.006 -0.016,-0.003 -0.019,-0.009 l -0.30734,-0.49587 -0.74084,0.51094 -0.44431,0.63004 -0.0867,0.16577 c -0.0112,0.0209 -0.0312,0.0297 -0.0457,0.0462 -0.0127,0.0151 -0.022,0.0267 -0.0395,0.0403 -0.0554,0.0433 -0.1216,0.0763 -0.19547,0.0763 h -0.19393 c -0.057,0 -0.1134,-0.0151 -0.16367,-0.0433 l -0.63054,-0.36752 c -0.007,-0.006 -0.006,-0.0151 -0.0146,-0.0209 -0.007,-0.003 -0.019,-0.003 -0.0268,-0.009 l -0.27246,-0.22119 -0.15287,0.1434 -0.49819,0.6422 0.18776,0.16577 c 0.006,0.006 0.004,0.0151 0.0112,0.0238 0.0283,0.0267 0.0335,0.0613 0.0472,0.0987 0.016,0.0374 0.0335,0.0671 0.0335,0.10744 0,0.009 0.007,0.0151 0.007,0.0238 l -0.0425,0.32717 c -0.006,0.0462 -0.0395,0.0793 -0.0647,0.11327 -0.0127,0.0209 -0.01,0.0433 -0.0268,0.0613 l -0.25705,0.2421 c -0.0127,0.0122 -0.0312,0.009 -0.0441,0.018 l 0.17804,0.22703 0.86861,-0.82305 v 0 c 0.057,-0.0525 0.13544,-0.088 0.22215,-0.088 h 0.006 l 1.81729,0.0403 v 0 l 4.10909,0.12251 c 0.007,0 0.0113,0.009 0.019,0.009 0.006,0 0.0113,-0.006 0.0174,-0.006 l 1.51308,0.20466 c 0.006,0.003 0.01,0.009 0.0159,0.009 0.006,0 0.0113,-0.003 0.0175,-0.003 l 0.17186,0.0404 c 0.0159,0.006 0.0221,0.0209 0.0349,0.0267 0.0425,0.0151 0.0708,0.0374 0.1011,0.07 0.0282,0.0297 0.0488,0.0491 0.0646,0.0851 0.006,0.0151 0.0236,0.0209 0.0282,0.0374 l 0.0441,0.16577 c 0.004,0.0122 -0.007,0.0238 -0.004,0.0345 0,0.0151 0.0159,0.0238 0.0159,0.0374 v 0.32717 c 0,0.006 -0.006,0.009 -0.007,0.0151 0,0.006 0.006,0.009 0.004,0.0151 l -0.12929,1.21244 v 0.63004 l 0.30732,0.79922 0.1293,0.14341 h 1.0215 c 0.009,0 0.0159,0.009 0.0251,0.0122 0.01,0 0.0159,-0.009 0.0251,-0.006 l 1.90239,0.28098 1.38528,-0.15994 c 0.006,0 0.01,0.006 0.0129,0.006 l 0.0615,-0.11667 0.0395,-0.59455 c 0,-0.018 0.019,-0.0297 0.0221,-0.0433 0.003,-0.018 -0.006,-0.0345 0,-0.0525 l 0.12929,-0.28828 c 0.003,-0.006 0.006,-0.006 0.01,-0.009 0.0159,-0.0316 0.0518,-0.0462 0.0775,-0.0734 0.0334,-0.0297 0.0585,-0.0671 0.1011,-0.0792 0.003,-0.003 0.003,-0.006 0.006,-0.006 l 0.52024,-0.16286 c 0.01,-0.003 0.019,0.003 0.0282,0 0.01,0 0.0159,-0.0122 0.0282,-0.0151 l 0.95173,-0.12251 c 0.006,0 0.0129,0.006 0.0221,0.006 0.006,0 0.0129,-0.009 0.0221,-0.009 h 0.0159 l 0.82141,0.0403 c 0.0333,0.003 0.0554,0.0297 0.0867,0.0374 0.0282,0.0122 0.0615,0.003 0.0868,0.0238 l 0.84963,0.6033 1.01638,0.53913 0.61618,0.1016 0.45253,-0.10743 c 0.0457,-0.0122 0.0868,0.0122 0.13236,0.0209 0.0333,0.006 0.0739,-0.003 0.10417,0.0151 0.0615,0.0316 0.0975,0.0909 0.12621,0.15508 0.003,0.0122 0.0159,0.0151 0.019,0.0267 l 0.003,0.003 0.216,0.77638 c 0,0.003 -0.003,0.006 -0.003,0.0122 0.003,0.003 0.006,0.006 0.01,0.0122 l 0.34529,1.84301 c 0.006,0.0267 -0.0159,0.0491 -0.019,0.0763 0,0.0267 0.0159,0.0491 0.006,0.0763 l -0.34221,0.90373 0.0554,0.63636 0.24576,1.56972 0.40687,0.72289 0.65262,0.0924 0.87785,0.0612 c 0.0251,0 0.0395,0.0238 0.0646,0.0297 0.0251,0.009 0.0488,-0.003 0.0708,0.0122 l 0.54537,0.30627 c 0.0313,0.018 0.0395,0.0491 0.0615,0.0763 0.0159,0.018 0.0426,0.0297 0.0518,0.0491 l 0.35146,-0.0554 c 0.0221,-0.003 0.0364,0.0122 0.0554,0.0122 0.0221,0 0.0364,-0.0151 0.0585,-0.0122 l 2.48069,0.47788 c 0.0129,0.003 0.019,0.018 0.0313,0.0209 0.0129,0.006 0.0251,-0.003 0.0364,0.003 l 3.82998,1.65633 h 0.003 l 4.498,1.99808 h 0.50126 l 0.0334,-0.0238 0.0364,-0.33885 v -0.73796 l -0.20984,-0.69421 -1.34274,-3.0777 c -0.01,-0.018 0.003,-0.0345 0,-0.0525 -0.006,-0.018 -0.0251,-0.0297 -0.0251,-0.0491 l -0.0554,-1.38602 c -0.003,-0.0238 0.019,-0.0374 0.0221,-0.0583 0.003,-0.0209 -0.01,-0.0374 -0.003,-0.0583 l 0.31657,-0.80505 v -0.57802 l -0.16367,-1.30675 c -0.003,-0.0209 0.0129,-0.0316 0.0159,-0.0525 0,-0.018 -0.0159,-0.0345 -0.01,-0.0525 l 0.0554,-0.21634 c 0.003,-0.0122 0.0129,-0.0151 0.019,-0.0238 0.0129,-0.0403 0.0425,-0.0642 0.0708,-0.0924 0.0282,-0.0282 0.0457,-0.0554 0.0805,-0.0734 0.0129,-0.006 0.0159,-0.018 0.0251,-0.0209 l 0.45253,-0.15994 c 0.006,-0.003 0.0159,0.003 0.022,0 0.01,-0.003 0.0129,-0.0122 0.019,-0.0122 l 0.73264,-0.15702 c 0.01,-0.003 0.0159,0.006 0.0251,0.003 0.01,0 0.0129,-0.009 0.0221,-0.009 l 2.13893,-0.15994 c 0.0251,-0.006 0.0395,0.0151 0.0615,0.018 0.0221,0 0.0364,-0.0122 0.0554,-0.006 l 0.68699,0.19884 h 0.17803 l -0.15443,-1.05298 -0.30731,-0.87797 -1.17286,-0.57802 c -0.0282,-0.0151 -0.0333,-0.0433 -0.0554,-0.0642 -0.0159,-0.0121 -0.0395,-0.009 -0.0554,-0.0267 l -0.41301,-0.53621 c -0.0129,-0.018 -0.006,-0.0403 -0.0159,-0.0613 -0.0159,-0.0345 -0.0251,-0.0642 -0.0251,-0.10452 -0.003,-0.0404 0.003,-0.0734 0.019,-0.11035 10e-4,-0.0199 -0.007,-0.0437 0.004,-0.0603 z"
       id="path2563-3-6-5"
       style="fill:#1a1a1a;stroke-width:0.127851" /><g
       fill="#305699"
       id="g825"
       transform="matrix(0.01648352,0,0,0.01648352,-713.30706,-265.68212)"
       style="fill:#b3b3b3"><path
         d="m 250,1087.5 h 300 c 36.461,-0.027 71.418,-14.523 97.199,-40.301 25.777,-25.781 40.273,-60.738 40.301,-97.199 v -50 c 0,-76.25 -30.289,-149.38 -84.207,-203.29 -53.918,-53.91 -127.04,-84.207 -203.29,-84.207 -76.25,0 -149.38,30.289 -203.29,84.207 -53.91,53.918 -84.207,127.04 -84.207,203.29 v 50 c 0.0273,36.461 14.523,71.418 40.301,97.199 25.781,25.777 60.738,40.273 97.199,40.301 z"
         id="path817"
         style="fill:#b3b3b3" /><path
         d="m 652,448 c 16.844,39.848 46.949,72.648 85.215,92.836 38.262,20.188 82.332,26.52 124.73,17.93 42.398,-8.5938 80.523,-31.586 107.91,-65.078 27.387,-33.492 42.348,-75.426 42.348,-118.69 0,-43.264 -14.961,-85.195 -42.348,-118.69 -27.387,-33.495 -65.512,-56.484 -107.91,-65.078 -42.402,-8.5898 -86.473,-2.2578 -124.73,17.93 -38.266,20.188 -68.371,52.988 -85.215,92.836 v 0.5 c 14,47.32 14,97.68 0,145 z"
         id="path819"
         style="fill:#b3b3b3" /><path
         d="m 612.5,375 c 0,117.36 -95.141,212.5 -212.5,212.5 -117.359,0 -212.5,-95.141 -212.5,-212.5 0,-117.359 95.141,-212.5 212.5,-212.5 117.359,0 212.5,95.141 212.5,212.5"
         id="path821"
         style="fill:#b3b3b3" /><path
         d="M 733.5,987.5 H 950 c 36.477,0.0273 71.465,-14.453 97.258,-40.242 25.789,-25.793 40.27,-60.781 40.242,-97.258 -0.055,-62.973 -25.094,-123.35 -69.621,-167.88 -44.527,-44.53 -104.91,-69.566 -167.88,-69.621 h -50 c -56.508,-0.0781 -111.16,20.152 -154,57 58.691,62.41 91.406,144.83 91.5,230.5 v 50 c -0.0391,12.605 -1.3828,25.172 -4,37.5 z"
         id="path823"
         style="fill:#b3b3b3" /></g></g></svg>
