<svg xmlns="http://www.w3.org/2000/svg" data-name="Layer 1" viewBox="0 0 68 68" x="0px" y="0px"><path d="M65.22,18.75,49.29,2.89a3,3,0,0,0-4.23,0l-4.9,4.9a3,3,0,0,0,0,4.24l.15.16L16,36.39,5.17,47.13a11,11,0,0,0-2.79,4.6,2.73,2.73,0,0,0-.1.41c-.06.21-.12.42-.17.63A12.11,12.11,0,0,0,1.9,55,10.87,10.87,0,0,0,3.16,60l0,.1.19.32a11.19,11.19,0,0,0,15.75,3.71,11.7,11.7,0,0,0,1.75-1.42l23-22.83,5.39-5.37h0L56,27.84l0,.06a3,3,0,0,0,4.25,0l4.9-4.9a3,3,0,0,0,.87-2.14A2.89,2.89,0,0,0,65.22,18.75ZM54.67,13.42a1,1,0,0,1,0,1.41l-2.55,2.54a.93.93,0,0,1-.7.29,1,1,0,0,1-.7-.29,1,1,0,0,1,0-1.41l2.53-2.54A1,1,0,0,1,54.67,13.42Zm-4.59-3.17a1,1,0,0,1,1.42,1.41L49,14.2a1,1,0,0,1-1.42,0,1,1,0,0,1,0-1.42Zm-5.72-.64,2.55-2.54a1,1,0,0,1,1.4,1.42L45.78,11a1,1,0,0,1-.7.3,1,1,0,0,1-.72-.3A1,1,0,0,1,44.36,9.61Zm3.81,23.23H44.83L22.69,55a3.93,3.93,0,0,1-2.83,1.17A4,4,0,0,1,17,55l-4-4a4,4,0,0,1,0-5.65L25.66,32.84H22.38L41.72,13.62l8,7.93,4.9,4.89ZM55.3,20.55a1,1,0,0,1-.7.29,1,1,0,0,1-.71-.29,1,1,0,0,1,0-1.42l2.54-2.54A1,1,0,0,1,57.83,18Zm5.72.63-2.54,2.54a1,1,0,0,1-1.42,0,1,1,0,0,1,0-1.41l2.54-2.54a1,1,0,0,1,1.42,0A1,1,0,0,1,61,21.18Z"></path><path d="M44.8,30.06,21.28,53.58a2,2,0,0,1-1.42.58,2,2,0,0,1-1.41-.58l-3.94-3.95a2,2,0,0,1,0-2.83L38,23.29a2,2,0,0,1,2.82,0l3.95,3.94A2,2,0,0,1,44.8,30.06Z"></path></svg>