<?xml version="1.0" encoding="UTF-8" standalone="no"?>
<svg
   version="1.1"
   x="0px"
   y="0px"
   viewBox="-461 335 137.33051 157.44325"
   xml:space="preserve"
   id="svg4"
   sodipodi:docname="logo.svg"
   inkscape:version="1.2.1 (0f2f062aeb, 2022-09-21, custom)"
   width="137.33051"
   height="157.44325"
   inkscape:export-filename="/home/catherine/Documents/epiplots/man/figures/logo.png"
   inkscape:export-xdpi="200"
   inkscape:export-ydpi="200"
   xmlns:inkscape="http://www.inkscape.org/namespaces/inkscape"
   xmlns:sodipodi="http://sodipodi.sourceforge.net/DTD/sodipodi-0.dtd"
   xmlns="http://www.w3.org/2000/svg"
   xmlns:svg="http://www.w3.org/2000/svg"><defs
     id="defs8"><clipPath
       clipPathUnits="userSpaceOnUse"
       id="clipPath937"><rect
         style="fill:#7f7f7f;stroke:#0000a0;stroke-width:4.1348;stroke-linejoin:round"
         id="rect939"
         width="191.82005"
         height="60.685112"
         x="-264.99911"
         y="-75.362549" /></clipPath><clipPath
       clipPathUnits="userSpaceOnUse"
       id="clipPath1205"><rect
         style="fill:#7f7f7f;stroke:#0000a0;stroke-width:4.1348;stroke-linejoin:round"
         id="rect1207"
         width="227.4493"
         height="116.42313"
         x="190.47174"
         y="-610.63934" /></clipPath><clipPath
       clipPathUnits="userSpaceOnUse"
       id="clipPath1205-7"><rect
         style="fill:#7f7f7f;stroke:#0000a0;stroke-width:4.1348;stroke-linejoin:round"
         id="rect1207-1"
         width="227.4493"
         height="116.42313"
         x="190.47174"
         y="-610.63934" /></clipPath><clipPath
       clipPathUnits="userSpaceOnUse"
       id="clipPath937-2"><rect
         style="fill:#7f7f7f;stroke:#0000a0;stroke-width:4.1348;stroke-linejoin:round"
         id="rect939-0"
         width="191.82005"
         height="60.685112"
         x="-264.99911"
         y="-75.362549" /></clipPath><clipPath
       clipPathUnits="userSpaceOnUse"
       id="clipPath1205-6"><rect
         style="fill:#7f7f7f;stroke:#0000a0;stroke-width:4.1348;stroke-linejoin:round"
         id="rect1207-15"
         width="227.4493"
         height="116.42313"
         x="190.47174"
         y="-610.63934" /></clipPath><clipPath
       clipPathUnits="userSpaceOnUse"
       id="clipPath1205-7-5"><rect
         style="fill:#7f7f7f;stroke:#0000a0;stroke-width:4.1348;stroke-linejoin:round"
         id="rect1207-1-4"
         width="227.4493"
         height="116.42313"
         x="190.47174"
         y="-610.63934" /></clipPath><clipPath
       clipPathUnits="userSpaceOnUse"
       id="clipPath937-6"><rect
         style="fill:#7f7f7f;stroke:#0000a0;stroke-width:4.1348;stroke-linejoin:round"
         id="rect939-9"
         width="191.82005"
         height="60.685112"
         x="-264.99911"
         y="-75.362549" /></clipPath><clipPath
       clipPathUnits="userSpaceOnUse"
       id="clipPath1205-3"><rect
         style="fill:#7f7f7f;stroke:#0000a0;stroke-width:4.1348;stroke-linejoin:round"
         id="rect1207-7"
         width="227.4493"
         height="116.42313"
         x="190.47174"
         y="-610.63934" /></clipPath><clipPath
       clipPathUnits="userSpaceOnUse"
       id="clipPath1205-7-4"><rect
         style="fill:#7f7f7f;stroke:#0000a0;stroke-width:4.1348;stroke-linejoin:round"
         id="rect1207-1-5"
         width="227.4493"
         height="116.42313"
         x="190.47174"
         y="-610.63934" /></clipPath><clipPath
       clipPathUnits="userSpaceOnUse"
       id="clipPath12728"><path
         sodipodi:type="star"
         style="fill:#000000;fill-opacity:1;stroke:none;stroke-width:1;stroke-linecap:round;stroke-linejoin:round;stroke-dasharray:none;stroke-opacity:1;paint-order:stroke markers fill"
         id="path12730"
         inkscape:flatsided="true"
         sodipodi:sides="6"
         sodipodi:cx="65.63372"
         sodipodi:cy="74.968491"
         sodipodi:r1="78.571136"
         sodipodi:r2="68.044601"
         sodipodi:arg1="0.52359878"
         sodipodi:arg2="1.0471976"
         inkscape:rounded="0"
         inkscape:randomized="0"
         d="m 133.67832,114.25406 -68.0446,39.28557 -68.0446,-39.28557 4e-7,-78.571138 L 65.633721,-3.6026459 133.67832,35.682923 Z"
         transform="matrix(0.87316343,-0.50101137,0.49924779,0.87008985,-228.96506,521.99072)" /></clipPath><clipPath
       clipPathUnits="userSpaceOnUse"
       id="clipPath12732"><path
         sodipodi:type="star"
         style="fill:#000000;fill-opacity:1;stroke:none;stroke-width:1;stroke-linecap:round;stroke-linejoin:round;stroke-dasharray:none;stroke-opacity:1;paint-order:stroke markers fill"
         id="path12734"
         inkscape:flatsided="true"
         sodipodi:sides="6"
         sodipodi:cx="65.63372"
         sodipodi:cy="74.968491"
         sodipodi:r1="78.571136"
         sodipodi:r2="68.044601"
         sodipodi:arg1="0.52359878"
         sodipodi:arg2="1.0471976"
         inkscape:rounded="0"
         inkscape:randomized="0"
         d="m 133.67832,114.25406 -68.0446,39.28557 -68.0446,-39.28557 4e-7,-78.571138 L 65.633721,-3.6026459 133.67832,35.682923 Z"
         transform="matrix(1.006691,0,0,1.0031474,-114.9758,-114.51224)" /></clipPath><clipPath
       clipPathUnits="userSpaceOnUse"
       id="clipPath12736"><path
         sodipodi:type="star"
         style="fill:#000000;fill-opacity:1;stroke:none;stroke-width:1;stroke-linecap:round;stroke-linejoin:round;stroke-dasharray:none;stroke-opacity:1;paint-order:stroke markers fill"
         id="path12738"
         inkscape:flatsided="true"
         sodipodi:sides="6"
         sodipodi:cx="65.63372"
         sodipodi:cy="74.968491"
         sodipodi:r1="78.571136"
         sodipodi:r2="68.044601"
         sodipodi:arg1="0.52359878"
         sodipodi:arg2="1.0471976"
         inkscape:rounded="0"
         inkscape:randomized="0"
         d="m 133.67832,114.25406 -68.0446,39.28557 -68.0446,-39.28557 4e-7,-78.571138 L 65.633721,-3.6026459 133.67832,35.682923 Z"
         transform="matrix(1.006691,0,0,1.0031474,-351.10212,293.19557)" /></clipPath><clipPath
       clipPathUnits="userSpaceOnUse"
       id="clipPath12740"><path
         sodipodi:type="star"
         style="fill:#000000;fill-opacity:1;stroke:none;stroke-width:1;stroke-linecap:round;stroke-linejoin:round;stroke-dasharray:none;stroke-opacity:1;paint-order:stroke markers fill"
         id="path12742"
         inkscape:flatsided="true"
         sodipodi:sides="6"
         sodipodi:cx="65.63372"
         sodipodi:cy="74.968491"
         sodipodi:r1="78.571136"
         sodipodi:r2="68.044601"
         sodipodi:arg1="0.52359878"
         sodipodi:arg2="1.0471976"
         inkscape:rounded="0"
         inkscape:randomized="0"
         d="m 133.67832,114.25406 -68.0446,39.28557 -68.0446,-39.28557 4e-7,-78.571138 L 65.633721,-3.6026459 133.67832,35.682923 Z"
         transform="matrix(1.3359856,0,0,2.2678048,-219.40429,-154.28109)" /></clipPath><clipPath
       clipPathUnits="userSpaceOnUse"
       id="clipPath12744"><path
         sodipodi:type="star"
         style="fill:#000000;fill-opacity:1;stroke:none;stroke-width:1;stroke-linecap:round;stroke-linejoin:round;stroke-dasharray:none;stroke-opacity:1;paint-order:stroke markers fill"
         id="path12746"
         inkscape:flatsided="true"
         sodipodi:sides="6"
         sodipodi:cx="65.63372"
         sodipodi:cy="74.968491"
         sodipodi:r1="78.571136"
         sodipodi:r2="68.044601"
         sodipodi:arg1="0.52359878"
         sodipodi:arg2="1.0471976"
         inkscape:rounded="0"
         inkscape:randomized="0"
         d="m 133.67832,114.25406 -68.0446,39.28557 -68.0446,-39.28557 4e-7,-78.571138 L 65.633721,-3.6026459 133.67832,35.682923 Z"
         transform="matrix(1.006691,0,0,1.0031474,-458.38018,338.80218)" /></clipPath><clipPath
       clipPathUnits="userSpaceOnUse"
       id="clipPath12748"><path
         sodipodi:type="star"
         style="fill:#000000;fill-opacity:1;stroke:none;stroke-width:1;stroke-linecap:round;stroke-linejoin:round;stroke-dasharray:none;stroke-opacity:1;paint-order:stroke markers fill"
         id="path12750"
         inkscape:flatsided="true"
         sodipodi:sides="6"
         sodipodi:cx="65.63372"
         sodipodi:cy="74.968491"
         sodipodi:r1="78.571136"
         sodipodi:r2="68.044601"
         sodipodi:arg1="0.52359878"
         sodipodi:arg2="1.0471976"
         inkscape:rounded="0"
         inkscape:randomized="0"
         d="m 133.67832,114.25406 -68.0446,39.28557 -68.0446,-39.28557 4e-7,-78.571138 L 65.633721,-3.6026459 133.67832,35.682923 Z"
         transform="matrix(0.8882303,0,0,0.88510369,0.41416413,-17.490211)" /></clipPath><clipPath
       clipPathUnits="userSpaceOnUse"
       id="clipPath12744-9"><path
         sodipodi:type="star"
         style="fill:#000000;fill-opacity:1;stroke:none;stroke-width:1;stroke-linecap:round;stroke-linejoin:round;stroke-dasharray:none;stroke-opacity:1;paint-order:stroke markers fill"
         id="path12746-3"
         inkscape:flatsided="true"
         sodipodi:sides="6"
         sodipodi:cx="65.63372"
         sodipodi:cy="74.968491"
         sodipodi:r1="78.571136"
         sodipodi:r2="68.044601"
         sodipodi:arg1="0.52359878"
         sodipodi:arg2="1.0471976"
         inkscape:rounded="0"
         inkscape:randomized="0"
         d="m 133.67832,114.25406 -68.0446,39.28557 -68.0446,-39.28557 4e-7,-78.571138 L 65.633721,-3.6026459 133.67832,35.682923 Z"
         transform="matrix(1.006691,0,0,1.0031474,-458.38018,338.80218)" /></clipPath><clipPath
       clipPathUnits="userSpaceOnUse"
       id="clipPath12732-1"><path
         sodipodi:type="star"
         style="fill:#000000;fill-opacity:1;stroke:none;stroke-width:1;stroke-linecap:round;stroke-linejoin:round;stroke-dasharray:none;stroke-opacity:1;paint-order:stroke markers fill"
         id="path12734-9"
         inkscape:flatsided="true"
         sodipodi:sides="6"
         sodipodi:cx="65.63372"
         sodipodi:cy="74.968491"
         sodipodi:r1="78.571136"
         sodipodi:r2="68.044601"
         sodipodi:arg1="0.52359878"
         sodipodi:arg2="1.0471976"
         inkscape:rounded="0"
         inkscape:randomized="0"
         d="m 133.67832,114.25406 -68.0446,39.28557 -68.0446,-39.28557 4e-7,-78.571138 L 65.633721,-3.6026459 133.67832,35.682923 Z"
         transform="matrix(1.006691,0,0,1.0031474,-114.9758,-114.51224)" /></clipPath><clipPath
       clipPathUnits="userSpaceOnUse"
       id="clipPath5147"><path
         sodipodi:type="star"
         style="fill:none;stroke:#000000;stroke-width:2.5;stroke-linejoin:round;stroke-miterlimit:4;stroke-dasharray:none;stroke-opacity:1"
         id="path5149"
         inkscape:flatsided="true"
         sodipodi:sides="6"
         sodipodi:cx="-48.832626"
         sodipodi:cy="-39.528706"
         sodipodi:r1="75.471756"
         sodipodi:r2="38.159691"
         sodipodi:arg1="0.52214479"
         sodipodi:arg2="1.0457436"
         inkscape:rounded="0"
         inkscape:randomized="0"
         transform="translate(-342.75359,453.44089)"
         inkscape:transform-center-x="4.2141042"
         inkscape:transform-center-y="-3.1627129"
         inkscape:export-filename="/home/catherine/Documents/epicentre/covid_herat/www/path891.png"
         inkscape:export-xdpi="200"
         inkscape:export-ydpi="200"
         d="m 16.58263,-1.8879006 -65.305522,37.8308716 -65.415258,-37.6408054 -0.10973,-75.4716766 65.305519,-37.830869 65.415256,37.640803 z"
         clip-path="url(#clipPath12732-1)" /></clipPath></defs><sodipodi:namedview
     id="namedview6"
     pagecolor="#ffffff"
     bordercolor="#666666"
     borderopacity="1.0"
     inkscape:pageshadow="2"
     inkscape:pageopacity="0.0"
     inkscape:pagecheckerboard="0"
     showgrid="false"
     inkscape:zoom="3.2703689"
     inkscape:cx="63.295612"
     inkscape:cy="104.42247"
     inkscape:window-width="1880"
     inkscape:window-height="1136"
     inkscape:window-x="40"
     inkscape:window-y="27"
     inkscape:window-maximized="1"
     inkscape:current-layer="svg4"
     fit-margin-top="0"
     fit-margin-left="0"
     fit-margin-right="0"
     fit-margin-bottom="0"
     inkscape:showpageshadow="2"
     inkscape:deskcolor="#d1d1d1" /><g
     id="g65"
     transform="matrix(1.1333671,0,0,1.1333671,-458.84958,358.62501)"
     style="fill:#305699;fill-opacity:1"
     clip-path="url(#clipPath12748)"><path
       d="m 62.4,6.7 c 0,0 0,0 0,0 0,0 0,0 0,0 z"
       id="path59"
       style="fill:#305699;fill-opacity:1" /><path
       d="M 35.2,14.1 35.1,14 c 0,0 0.1,0.1 0.1,0.1 z"
       id="path61"
       style="fill:#305699;fill-opacity:1" /><path
       d="m 94.5,19.8 c -0.2,-0.1 -1.5,-0.3 -1.6,-0.4 -0.8,-0.8 -0.1,-1.8 0,-2.7 0.1,-0.4 0,-1.3 0.1,-1.7 0.1,-0.6 0.3,-0.4 0,-0.9 -0.4,-0.7 -0.8,-0.5 -1.4,-1 0,-0.2 -0.1,-0.5 -0.2,-0.7 C 91.1,12.2 90.9,12.1 90.6,12 90.1,11.5 89.4,11.1 88.9,10.6 88.5,10.1 87.7,8.8 87.2,8.7 86.1,8.4 86.6,9.2 85.9,9.5 c -1.2,0.4 -0.2,0.4 -1.4,0.3 -0.4,0 -1.1,-0.6 -1.4,-0.5 -0.6,0.1 -0.9,1 -1.5,1.1 -1.8,0.4 -3.3,-2.3 -4.5,-3.2 -0.7,-0.5 -1.2,-1 -2.2,-1 -0.5,0 -1.1,0.5 -1.8,0.5 C 72.3,6.7 71.9,6.2 71.2,6.1 70.1,6 69.7,5.9 68.7,5.6 66.8,5.2 67.7,6 66.5,6.9 c -0.6,0.5 -2.2,0.4 -2.8,0.3 -0.3,0 -2,-0.9 -2,0.1 0.1,0 0.1,0 0.2,0 -1.2,0 -2.4,1.1 -3.5,1.3 -0.9,0.2 -1.1,-0.2 -2,-0.3 -0.9,-0.1 -1,-0.1 -1.6,0.6 -0.3,0.4 -0.5,1.2 -0.9,1.5 -1.1,1.2 -3.4,0.2 -5.1,0.1 C 47.8,10.4 47.2,9.9 46.2,9.7 45,9.5 44.9,9.8 43.9,9 42.4,7.8 40.9,5.5 38.6,6.7 c -1.1,0.6 -1.5,1.8 -2.4,2.6 -0.7,0.8 -0.9,0.8 -1,1.7 -0.2,1.3 0.4,2.8 0.2,3.9 -0.3,2.1 -2.2,3.6 -2.6,5.6 -0.3,1.5 -0.2,2.9 -0.6,4.5 -0.4,1.5 0.1,2.9 -0.2,4.3 -0.2,0.8 -0.7,1.4 -0.9,2.2 -0.2,0.8 0.1,1.5 -0.2,2.2 -0.5,1.3 -1.6,1.7 -2.7,2.3 -1.4,0.8 -1.6,1.7 -2.4,3 -0.8,1.2 -1.8,1.7 -1.9,3.2 -0.3,2.8 0.7,5.6 -2,7.5 -0.7,0.5 -1.3,0.9 -2,1.4 -0.7,0.6 -1.7,1.8 -2.5,2.4 -0.9,0.6 -1.7,0.8 -2,-0.3 -0.4,-1.4 1,-2 -1.1,-1.6 -0.3,0.1 -1.8,0.3 -2,0.5 -0.6,0.5 -0.2,1.7 -1.5,1.6 -0.6,0 -1,-0.9 -1.6,-0.9 -1.3,-0.1 -1.9,1.7 -2.9,2.1 0.7,0.4 0.4,1.9 0.3,2.6 -0.1,0.8 -1.1,0.5 -1.6,0.9 0.2,0.2 0.4,0.4 0.7,0.6 0.1,0.1 0.2,0.2 0.3,0.3 -0.1,-0.2 0.2,-0.2 0.2,-0.1 0.3,0.1 -0.1,0.2 -0.1,0.3 0,0 0.1,0 0.1,0 0.3,0 0.7,-0.2 1,-0.3 0.2,-0.1 0.2,-0.3 0.4,-0.5 0.6,-0.6 1.4,0.3 1.9,-0.1 1.2,0 13.9,-0.1 15.1,0 1,0.1 1.1,0.7 1.5,1.4 0.4,0.7 0.4,2 0.7,2.9 0.3,0.8 0.3,1.5 0.6,2.3 0.4,0.9 2.3,3.7 3.2,4 1.3,0.4 3,-0.6 4.3,-0.7 1.6,0 2.9,0.8 3.8,-0.6 0.7,-1 0.2,-3.4 1.2,-3.9 0.5,-0.3 1.7,0.2 2.3,0.1 0.4,-0.1 1.3,-0.6 1.7,-0.5 1.2,0.4 -0.2,1 0.7,1.7 0.7,0.6 3.1,0 4,0.1 0.9,0 1.9,-0.2 1.8,0.9 0,0.6 -0.4,1.2 -0.4,1.8 -0.1,0.6 0.3,1.2 0.5,1.8 0.6,1.5 -0.2,2.9 -0.3,4.4 -0.1,1.8 0.7,2.3 1.5,3.7 0.4,0.8 0.8,2.1 0.7,3 -0.1,0.5 -0.4,0.9 -0.5,1.2 -0.1,0.6 0.4,1.3 0.2,1.8 0.2,0.1 0.8,-0.6 1,-0.6 0.3,0 0.6,0 0.9,0 1.2,-0.1 2.4,-0.3 3.6,-0.5 0.6,-0.1 1.2,0.2 1.8,0.1 0.6,-0.1 0.6,-0.6 1.2,-0.5 -0.2,0 1,0.8 0.9,0.7 0.3,0.4 1.2,1.2 0.2,1.6 0.6,0.5 4,-0.4 4.7,-0.8 0,2.2 0.2,2.4 2.2,2.9 1.2,0.3 3.6,1.6 4.9,0.8 0.5,-0.3 0.7,-1.5 1,-1.6 0.8,-0.3 0.3,0.2 0.8,0.7 1.1,1.1 1.1,2.3 2.8,2.5 0.6,0.1 1,0.6 1.6,0.7 1.4,0.3 0.9,1.3 1.5,2.2 0.7,-0.8 1.4,1.4 1.6,1.9 0.2,0.5 0.5,0.8 1.2,0.7 0.7,-0.1 1.6,-1.1 2.2,-0.6 -0.1,0.4 -0.4,0.6 0.1,0.8 0.6,0.2 0.5,-1 0.5,-1.4 0,-1.6 0.2,-3.1 0.1,-4.6 -0.5,0.2 -2,0 -1.5,0.9 0.4,0.6 -0.5,0.2 -0.7,0.1 -0.4,-0.1 -1,0 -1.3,-0.2 -0.5,-0.3 -0.7,-1.1 -1.2,-1.5 -0.4,-0.4 -1,-0.7 -1.3,-1.2 -0.3,-0.6 -0.6,-1.2 -0.4,-1.9 0.3,-0.8 0.5,-1.6 0.8,-2.4 0.3,-0.8 0.8,-1 0.6,-1.9 -0.1,-0.9 -0.2,-1.5 0,-2.5 0.2,-0.9 0,-1.6 -0.3,-2.4 -0.1,-0.2 -0.8,-0.9 -0.7,-1.1 0.3,-0.4 0.9,-0.5 1.2,-0.9 0.7,-0.7 1.9,-1.7 1.2,-2.8 1.4,-0.2 7,-0.9 8.2,-1.2 0.8,-0.2 0.4,-0.8 0.1,-1.4 -0.8,-1.5 -1.3,-3.5 -2.3,-4.7 -1,-1.2 -3,-2.2 -2.9,-4.1 0,-0.9 0.6,-1.4 0.5,-2.3 0,-1 -1,-1.9 -1.1,-2.9 -0.1,-1.3 0.4,-2.4 0.1,-3.7 -0.1,-0.7 -0.5,-1.3 -0.7,-2 -0.2,-1 0.3,-2.3 -0.1,-3.3 C 85,44.8 84,44 83.8,43.4 c -0.4,-1.4 0.6,-1.5 1.1,-2.6 0.2,-0.5 0,-1.2 0.3,-1.8 0.4,-0.8 1.4,-1.3 2.2,-1.8 -0.7,-0.2 -0.1,-4.5 0,-5.3 0.1,-1.1 0.6,-1.8 0.9,-2.8 0.2,-0.5 0.2,-1.6 0.4,-1.9 1.1,-2.2 4.1,-3.7 5.7,-5.7 0.4,-0.5 1,-1.4 0.1,-1.7 -0.2,-0.1 0.2,0 0,0 -0.2,-0.1 0.2,0 0,0 -0.2,-0.1 0.2,0 0,0 -0.2,-0.1 0.2,0 0,0 -0.2,-0.1 0.2,0 0,0 -0.2,-0.1 0.2,0 0,0 z"
       id="path63"
       style="fill:#305699;fill-opacity:1" /></g><path
     d="m -325.56802,432.35184 c 6.84815,1.9972 11.98391,8.5605 11.98391,16.26416 0,9.41574 -7.70396,17.12018 -17.12021,17.12018 h -62.48847 c -9.41574,0 -17.12021,-7.70395 -17.12021,-17.12018 0,-8.84507 6.84816,-16.26416 15.40811,-17.12022 3.13868,-11.12785 15.9788,-15.97882 25.39455,-9.70191 12.26926,-19.11767 41.94488,-12.26926 43.94152,10.55714 z"
     fill="#305699"
     fill-rule="evenodd"
     id="path8568"
     style="fill:#ffffff;stroke:#000000;stroke-width:3;stroke-dasharray:none;stroke-opacity:1"
     clip-path="url(#clipPath5147)"
     transform="translate(-0.7768964)" /><g
     id="g1086"
     transform="matrix(0.75351937,0,0,0.44234292,-297.0548,407.04733)"
     inkscape:export-filename="/home/catherine/Documents/epiplots/man/figures/logo.svg"
     inkscape:export-xdpi="200"
     inkscape:export-ydpi="200"
     style="fill:#000000"
     clip-path="url(#clipPath12740)"><path
       d="m -115.23486,113.39019 h 7.52379 c 0.80772,0 1.58237,0.17605 2.15347,0.48945 0.57107,0.31356 0.89216,0.73853 0.89216,1.18179 v 15.64639 c 0,0.44327 -0.32109,0.86855 -0.89216,1.18195 -0.57137,0.31356 -1.34605,0.48961 -2.15376,0.48961 h -7.52233 c -0.80801,0 -1.58237,-0.17605 -2.15376,-0.48945 -0.57107,-0.31355 -0.89187,-0.73852 -0.89187,-1.18194 v -15.6468 c 0,-0.44326 0.3208,-0.86822 0.89187,-1.18163 0.57108,-0.3134 1.34546,-0.48945 2.15317,-0.48945 z"
       id="path853"
       style="fill:#000000;stroke-width:0.0539349" /><path
       d="m -95.884806,82.104806 h 7.499767 c 0.810843,0 1.58834,0.322226 2.161689,0.895589 0.573349,0.573363 0.895589,1.350919 0.895589,2.16198 v 44.159145 c 0,0.81113 -0.322226,1.58863 -0.895589,2.16227 -0.573633,0.57335 -1.35121,0.89559 -2.162271,0.89559 h -7.499039 c -0.810843,0 -1.588631,-0.32223 -2.16198,-0.89559 -0.573349,-0.57336 -0.895298,-1.35092 -0.895298,-2.16198 V 85.161938 c 0,-0.810842 0.321942,-1.58834 0.895298,-2.161689 0.573356,-0.573348 1.350919,-0.895297 2.161689,-0.895297 z"
       id="path855"
       style="fill:#000000;stroke-width:0.0728062" /><path
       d="m -76.72783,91.694549 h 7.526705 c 0.80713,0 1.581569,0.320798 2.152297,0.891584 0.570786,0.570786 0.891294,1.344949 0.891294,2.152297 v 34.59678 c 0,0.80742 -0.320515,1.58157 -0.891585,2.15259 -0.570786,0.57078 -1.34524,0.89158 -2.152297,0.89158 h -7.525977 c -0.80742,0 -1.581569,-0.3208 -2.152297,-0.89158 -0.570786,-0.57079 -0.891584,-1.34495 -0.891584,-2.15208 V 94.738212 c 0,-0.80713 0.320514,-1.581278 0.891293,-2.152079 0.570786,-0.570786 1.344949,-0.891293 2.152079,-0.891293 z"
       id="path857"
       style="fill:#000000;stroke-width:0.0728062" /><path
       d="m -57.556897,105.94585 h 7.526705 v 0 c 0.80742,0 1.581569,0.3208 2.152296,0.89159 0.571078,0.57078 0.891585,1.34495 0.891585,2.15208 v 20.34569 c 0,0.80742 -0.320798,1.58157 -0.891585,2.15259 -0.570786,0.57078 -1.34524,0.89158 -2.152588,0.89158 h -7.526261 c -0.80713,0 -1.581569,-0.3208 -2.152297,-0.89158 -0.570786,-0.57079 -0.891585,-1.34495 -0.891585,-2.15208 V 108.9893 c 0,-0.80713 0.320799,-1.58128 0.891585,-2.15208 0.570786,-0.57079 1.344658,-0.89129 2.152078,-0.89129 z"
       id="path861"
       style="fill:#000000;stroke-width:0.0728062" /><path
       d="m -134.39207,101.36176 h 7.14921 v 0 c 0.7669,0 1.50218,0.37643 2.04435,1.0462 0.54246,0.66978 0.84689,1.5782 0.84689,2.5253 v 23.87403 c 0,0.94744 -0.30471,1.85584 -0.84689,2.52589 -0.54217,0.66978 -1.27783,1.0462 -2.04464,1.0462 h -7.14883 c -0.76662,0 -1.50218,-0.37642 -2.04435,-1.0462 -0.54218,-0.66978 -0.84689,-1.57819 -0.84689,-2.52529 V 104.933 c 0,-0.9471 0.30471,-1.85551 0.84689,-2.52529 0.54217,-0.66976 1.27725,-1.04586 2.04416,-1.04586 z"
       id="path861-0"
       style="fill:#000000;stroke-width:0.0768637" /></g><g
     id="g9805"
     style="stroke:#5d5d5d;stroke-opacity:1"
     transform="translate(-107.27806,45.606615)"
     clip-path="url(#clipPath12736)"><circle
       style="fill:none;stroke:#5d5d5d;stroke-width:1.30553;stroke-linejoin:round;stroke-miterlimit:4;stroke-dasharray:none;stroke-opacity:1"
       id="path1474-78"
       cx="-284.60718"
       cy="402.13013"
       r="2.1577876"
       inkscape:export-filename="/home/catherine/Documents/epiplots/man/figures/logo.svg"
       inkscape:export-xdpi="200"
       inkscape:export-ydpi="200" /><circle
       style="fill:none;stroke:#5d5d5d;stroke-width:1.30553;stroke-linejoin:round;stroke-miterlimit:4;stroke-dasharray:none;stroke-opacity:1"
       id="path1474-1-6"
       cx="-241.01379"
       cy="393.48425"
       r="2.1577876"
       inkscape:export-filename="/home/catherine/Documents/epiplots/man/figures/logo.svg"
       inkscape:export-xdpi="200"
       inkscape:export-ydpi="200" /><circle
       style="fill:none;stroke:#5d5d5d;stroke-width:1.30553;stroke-linejoin:round;stroke-miterlimit:4;stroke-dasharray:none;stroke-opacity:1"
       id="path1474-7-8"
       cx="-226.56812"
       cy="390.97379"
       r="2.1577876"
       inkscape:export-filename="/home/catherine/Documents/epiplots/man/figures/logo.svg"
       inkscape:export-xdpi="200"
       inkscape:export-ydpi="200" /><circle
       style="fill:none;stroke:#5d5d5d;stroke-width:1.30553;stroke-linejoin:round;stroke-miterlimit:4;stroke-dasharray:none;stroke-opacity:1"
       id="path1474-9-8"
       cx="-270.03033"
       cy="386.20538"
       r="2.1577876"
       inkscape:export-filename="/home/catherine/Documents/epiplots/man/figures/logo.svg"
       inkscape:export-xdpi="200"
       inkscape:export-ydpi="200" /><path
       style="fill:none;stroke:#5d5d5d;stroke-width:1.29642;stroke-linecap:butt;stroke-linejoin:miter;stroke-miterlimit:4;stroke-dasharray:none;stroke-opacity:1"
       d="m -283.0504,400.39678 11.54255,-12.55025"
       id="path4621-4"
       inkscape:export-filename="/home/catherine/Documents/epiplots/man/figures/logo.svg"
       inkscape:export-xdpi="200"
       inkscape:export-ydpi="200" /><path
       style="fill:none;stroke:#5d5d5d;stroke-width:1.30553;stroke-linecap:butt;stroke-linejoin:miter;stroke-miterlimit:4;stroke-dasharray:1.30553, 1.30553;stroke-dashoffset:0;stroke-opacity:1"
       d="m -267.7173,386.69604 24.55701,6.23086"
       id="path4623-3"
       inkscape:export-filename="/home/catherine/Documents/epiplots/man/figures/logo.svg"
       inkscape:export-xdpi="200"
       inkscape:export-ydpi="200" /><path
       style="fill:none;stroke:#5d5d5d;stroke-width:1.30553;stroke-linecap:butt;stroke-linejoin:miter;stroke-miterlimit:4;stroke-dasharray:none;stroke-opacity:1"
       d="m -238.63666,393.2878 9.83556,-1.52127"
       id="path4738-1"
       inkscape:export-filename="/home/catherine/Documents/epiplots/man/figures/logo.svg"
       inkscape:export-xdpi="200"
       inkscape:export-ydpi="200" /></g><path
     sodipodi:type="star"
     style="fill:none;stroke:#000000;stroke-width:2.5;stroke-linejoin:round;stroke-miterlimit:4;stroke-dasharray:none;stroke-opacity:1"
     id="path891-7"
     inkscape:flatsided="true"
     sodipodi:sides="6"
     sodipodi:cx="-48.832626"
     sodipodi:cy="-39.528706"
     sodipodi:r1="75.471756"
     sodipodi:r2="38.159691"
     sodipodi:arg1="0.52214479"
     sodipodi:arg2="1.0457436"
     inkscape:rounded="0"
     inkscape:randomized="0"
     transform="translate(-343.40438,453.31442)"
     inkscape:transform-center-x="4.2141042"
     inkscape:transform-center-y="-3.1627129"
     inkscape:export-filename="/home/catherine/Documents/epicentre/covid_herat/www/path891.png"
     inkscape:export-xdpi="200"
     inkscape:export-ydpi="200"
     d="m 16.58263,-1.8879006 -65.305522,37.8308716 -65.415258,-37.6408054 -0.10973,-75.4716766 65.305519,-37.830869 65.415256,37.640803 z"
     clip-path="url(#clipPath12732)" /><text
     xml:space="preserve"
     style="font-style:normal;font-variant:normal;font-weight:bold;font-stretch:normal;font-size:15.9901px;line-height:1.25;font-family:Arial;-inkscape-font-specification:'Arial, Bold';font-variant-ligatures:normal;font-variant-caps:normal;font-variant-numeric:normal;font-variant-east-asian:normal;fill:#4d4d4d;fill-opacity:1;stroke:none;stroke-width:1;stroke-linejoin:round;stroke-dasharray:none;stroke-opacity:1;paint-order:stroke markers fill"
     x="-167.75934"
     y="616.24969"
     id="text22359-1-3"
     transform="rotate(29.84672,-6.0455745,7.4730803)"
     clip-path="url(#clipPath12728)"><tspan
       sodipodi:role="line"
       id="tspan22357-8-6"
       x="-167.75934"
       y="616.24969"
       style="font-style:normal;font-variant:normal;font-weight:bold;font-stretch:normal;font-size:15.9901px;font-family:Arial;-inkscape-font-specification:'Arial, Bold';font-variant-ligatures:normal;font-variant-caps:normal;font-variant-numeric:normal;font-variant-east-asian:normal;fill:#4d4d4d;stroke:none;stroke-width:1;stroke-linejoin:round;stroke-dasharray:none;stroke-opacity:1;paint-order:stroke markers fill">cholera</tspan></text></svg>
