<svg xmlns="http://www.w3.org/2000/svg" xmlns:xlink="http://www.w3.org/1999/xlink" version="1.1" x="0px" y="0px" viewBox="0 0 64 64" style="enable-background:new 0 0 64 64;" xml:space="preserve"><style type="text/css">
	.st0{display:none;}
	.st1{display:inline;}
	.st2{fill:none;stroke:#B3B3B3;stroke-width:0.1;stroke-miterlimit:10;}
</style><g class="st0"><g class="st1"><rect x="2" y="2" class="st2" width="60" height="60"></rect><line class="st2" x1="32" y1="2" x2="32" y2="62"></line><line class="st2" x1="62" y1="32" x2="2" y2="32"></line><line class="st2" x1="2" y1="2" x2="62" y2="62"></line><rect x="10" y="10" class="st2" width="44" height="44"></rect><line class="st2" x1="62" y1="2" x2="2" y2="62"></line><line class="st2" x1="2" y1="32" x2="32" y2="2"></line><line class="st2" x1="32" y1="2" x2="62" y2="32"></line><line class="st2" x1="62" y1="32" x2="32" y2="62"></line><line class="st2" x1="32" y1="62" x2="2" y2="32"></line><circle class="st2" cx="32" cy="32" r="21"></circle></g></g><path d="M56,27C56,13.7,45,3,32,3C18.7,3,8,13.7,8,27c0,0.3,0,0.7,0,1l0,0c0,0.1,0.4,3.6,0.8,5.1C11.6,44.8,21.1,53.7,32,62  c10.9-8.3,20.4-17.2,23.2-28.9c0.4-1.5,0.8-4.9,0.8-5.1l0,0C56,27.7,56,27.3,56,27z M32,37c-5.5,0-10-4.5-10-10s4.5-10,10-10  s10,4.5,10,10S37.5,37,32,37z"></path></svg>